<svg xmlns="http://www.w3.org/2000/svg" width="20" height="20" fill="none"><path fill="#FF5029" d="M9.999 6.147a3.852 3.852 0 1 0 0 7.705 3.852 3.852 0 0 0 0-7.705Zm0 6.356a2.503 2.503 0 1 1 0-5.006 2.503 2.503 0 0 1 0 5.006ZM14.005 6.904a.898.898 0 1 0 0-1.797.898.898 0 0 0 0 1.797Z"/><path fill="#FF5029" d="M17.11 5.093a3.837 3.837 0 0 0-2.194-2.194 5.506 5.506 0 0 0-1.821-.35c-.803-.035-1.057-.045-3.092-.045s-2.296 0-3.092.045a5.462 5.462 0 0 0-1.82.35 3.833 3.833 0 0 0-2.194 2.194 5.487 5.487 0 0 0-.349 1.821c-.036.802-.047 1.056-.047 3.092 0 2.035 0 2.294.047 3.092.013.623.13 1.238.35 1.822a3.841 3.841 0 0 0 2.194 2.194c.58.226 1.196.355 1.821.375.803.035 1.057.045 3.092.045s2.296 0 3.091-.045a5.513 5.513 0 0 0 1.822-.35 3.844 3.844 0 0 0 2.194-2.194c.22-.583.337-1.198.35-1.821.035-.802.046-1.056.046-3.092s0-2.294-.046-3.092a5.484 5.484 0 0 0-.351-1.847Zm-1.014 7.943c-.006.48-.093.956-.26 1.407a2.49 2.49 0 0 1-1.426 1.426 4.153 4.153 0 0 1-1.392.259c-.792.036-1.015.046-3.045.046-2.032 0-2.239 0-3.046-.046a4.133 4.133 0 0 1-1.39-.26 2.487 2.487 0 0 1-1.433-1.425 4.234 4.234 0 0 1-.26-1.391c-.035-.792-.043-1.015-.043-3.045 0-2.03 0-2.238.044-3.046.006-.48.092-.955.259-1.406A2.489 2.489 0 0 1 5.536 4.13a4.174 4.174 0 0 1 1.391-.26c.793-.035 1.015-.045 3.046-.045 2.031 0 2.24 0 3.045.045.476.006.946.094 1.392.26.655.252 1.172.77 1.426 1.426.164.445.252.916.26 1.391.035.793.045 1.015.045 3.046 0 2.03 0 2.248-.036 3.045h-.01Z"/></svg>